<svg width="26" height="26" viewBox="0 0 26 26" fill="none" xmlns="http://www.w3.org/2000/svg">
<g id="Group">
<g id="Group_2">
<path id="Vector" d="M13.0609 0.525757C6.05244 0.525757 0.350098 6.2281 0.350098 13.2366C0.350098 20.245 6.05244 25.9474 13.0609 25.9474C20.0694 25.9474 25.7717 20.245 25.7717 13.2366C25.7717 6.2281 20.0694 0.525757 13.0609 0.525757ZM20.165 9.89162L12.0415 17.9514C11.5637 18.4292 10.7991 18.4611 10.2894 17.9832L5.98873 14.0648C5.47902 13.587 5.44717 12.7906 5.89316 12.2809C6.37101 11.7712 7.16743 11.7393 7.67713 12.2172L11.0858 15.3391L18.3491 8.07579C18.8588 7.56608 19.6552 7.56608 20.165 8.07579C20.6747 8.5855 20.6747 9.38191 20.165 9.89162Z" fill="#363636"/>
</g>
</g>
</svg>
